<?xml version="1.0" standalone="no"?>
<!DOCTYPE svg PUBLIC "-//W3C//DTD SVG 20010904//EN"
 "http://www.w3.org/TR/2001/REC-SVG-20010904/DTD/svg10.dtd">
<svg version="1.0" xmlns="http://www.w3.org/2000/svg"
 width="600.000000pt" height="600.000000pt" viewBox="0 0 600.000000 600.000000"
 preserveAspectRatio="xMidYMid meet">

<g transform="translate(0.000000,600.000000) scale(0.100000,-0.100000)"
fill="#000000" stroke="none">
<path d="M3047 5503 c-3 -10 -9 -34 -12 -53 -12 -64 -133 -553 -169 -684 -20
-71 -36 -135 -36 -143 0 -9 14 -13 45 -13 38 0 45 3 49 23 3 12 12 58 21 102
26 129 22 125 109 125 l74 0 10 -47 c6 -27 16 -82 22 -124 l12 -76 82 -6 c44
-3 82 -4 84 -2 2 2 -5 41 -16 87 -11 46 -32 135 -47 198 -14 63 -32 144 -41
180 -8 36 -16 74 -19 85 -47 244 -48 249 -70 333 -4 14 -14 22 -28 22 -12 0
-32 3 -44 6 -15 4 -23 1 -26 -13z m38 -409 c19 -83 22 -110 12 -116 -12 -8
-84 -4 -93 5 -3 2 7 55 22 116 14 62 28 110 30 108 2 -2 15 -53 29 -113z"/>
<path d="M2385 5433 c-11 -3 -23 -8 -27 -12 -4 -4 6 -49 23 -101 16 -52 46
-147 66 -210 19 -63 41 -133 48 -155 7 -22 11 -42 8 -45 -3 -3 -100 93 -217
212 l-212 217 -52 -15 c-29 -9 -52 -18 -52 -20 0 -2 25 -82 56 -177 77 -235
127 -400 165 -542 18 -66 33 -121 35 -123 4 -5 84 21 84 27 0 3 -21 71 -46
151 -25 80 -48 154 -51 165 -3 11 -18 62 -34 114 -17 51 -28 95 -26 98 2 2
103 -97 224 -221 l220 -224 46 10 c26 5 47 13 47 17 0 4 -16 54 -35 112 -20
57 -35 106 -36 109 0 6 -53 183 -79 265 -10 33 -35 119 -55 190 -20 72 -38
138 -41 148 -5 17 -20 19 -59 10z"/>
<path d="M3695 5429 c-2 -8 -18 -72 -34 -144 -17 -71 -37 -152 -45 -180 -8
-27 -35 -126 -61 -220 -26 -93 -57 -201 -70 -240 -25 -78 -25 -79 45 -89 25
-4 88 -20 140 -36 52 -17 97 -30 101 -30 5 0 28 87 30 115 0 6 -19 14 -43 18
-23 5 -60 13 -80 18 l-36 9 34 133 c55 206 133 486 155 551 11 32 18 60 16 62
-2 3 -28 11 -58 18 -30 8 -62 18 -71 21 -11 4 -20 2 -23 -6z"/>
<path d="M4230 5233 c-14 -42 -71 -183 -102 -253 -11 -24 -54 -121 -95 -214
-41 -94 -90 -201 -109 -238 -19 -37 -34 -71 -34 -75 0 -8 149 -79 214 -103 15
-6 54 -12 86 -15 50 -4 67 0 117 25 101 51 174 138 250 301 94 199 98 376 12
456 -30 27 -105 65 -218 110 -47 19 -91 37 -97 39 -7 3 -17 -11 -24 -33z m180
-143 c80 -51 89 -127 34 -287 -78 -230 -201 -369 -308 -349 -70 13 -71 19 -20
141 55 133 50 121 120 275 31 69 70 153 85 188 16 34 31 62 35 62 4 0 28 -14
54 -30z"/>
<path d="M1472 5084 c-67 -33 -118 -94 -139 -164 -14 -46 -14 -67 -5 -132 26
-180 189 -421 346 -513 69 -40 171 -46 244 -15 65 28 137 105 153 163 36 133
-23 310 -160 482 -65 82 -62 79 -122 127 -102 83 -217 102 -317 52z m136 -104
c149 -68 359 -393 345 -535 -4 -46 -49 -95 -86 -95 -32 1 -101 34 -147 72 -82
67 -205 244 -246 355 -62 164 4 262 134 203z"/>
<path d="M4934 4791 c-131 -34 -286 -186 -382 -376 -53 -106 -68 -245 -33
-320 41 -88 154 -165 244 -165 45 0 113 19 162 44 47 24 177 155 216 216 19
30 40 64 47 75 28 46 62 123 71 165 13 58 14 167 1 175 -5 3 -10 14 -10 25 0
30 -68 103 -124 132 -56 29 -141 42 -192 29z m162 -122 c22 -18 36 -77 29
-122 -17 -114 -110 -280 -225 -400 -95 -101 -188 -130 -236 -74 -72 84 20 321
201 515 66 71 127 104 180 97 21 -3 45 -11 51 -16z"/>
<path d="M910 4669 c-19 -12 -71 -60 -116 -107 l-80 -86 320 -318 c176 -175
321 -318 321 -318 1 0 25 23 55 51 50 46 53 52 37 64 -23 16 -268 255 -262
255 10 0 274 -124 321 -150 l50 -29 63 60 c35 33 62 62 60 63 -2 2 -33 16 -69
31 -71 29 -185 80 -297 131 -70 32 -72 34 -63 59 15 41 12 67 -16 122 -49 99
-170 193 -249 193 -23 0 -55 -9 -75 -21z m113 -147 c47 -31 86 -76 104 -120
15 -36 10 -66 -15 -95 -14 -16 -23 -10 -128 95 -62 61 -110 116 -107 121 10
16 67 36 88 31 11 -4 37 -18 58 -32z"/>
<path d="M3559 3936 c-10 -10 -550 -21 -902 -18 l-388 3 8 -133 c4 -73 7 -270
6 -436 l-2 -304 22 6 c91 22 624 52 641 35 5 -5 -81 -320 -149 -544 -13 -44
-54 -183 -90 -310 -37 -126 -86 -298 -110 -381 -24 -83 -67 -243 -95 -355 -28
-112 -60 -235 -72 -274 -32 -111 -118 -384 -142 -455 l-23 -65 21 -80 21 -80
40 3 c22 1 144 3 271 4 l232 2 41 210 c49 249 101 498 130 616 11 47 34 144
51 215 65 274 84 348 157 620 41 154 81 303 88 330 7 28 26 95 43 150 16 55
41 139 55 186 56 191 129 415 143 441 8 14 14 34 14 43 0 9 25 93 56 185 l56
168 -27 103 c-14 57 -29 107 -31 111 -5 8 -57 11 -65 4z m-1059 -2832 c39 -2
40 -3 40 -20 0 -26 -71 -14 -81 14 -7 17 -6 21 4 15 6 -4 23 -8 37 -9z m315
-44 c-16 -18 -26 -20 -76 -14 -68 8 -109 0 -109 -22 0 -12 12 -14 75 -8 54 5
79 3 90 -6 19 -16 20 -64 1 -79 -17 -14 -5 -62 22 -94 24 -28 5 -71 -33 -75
-28 -2 -29 -2 -11 12 25 20 16 38 -31 65 -21 13 -32 17 -25 10 31 -33 -4 -94
-50 -87 -23 4 -23 5 5 16 32 13 33 19 10 44 -15 17 -15 22 -3 41 12 19 9 19
-23 -6 -45 -34 -77 -36 -77 -4 -1 13 -9 -1 -20 -33 -11 -30 -20 -55 -20 -56 0
-1 -13 -4 -30 -6 -35 -5 -38 1 -10 25 12 10 20 29 20 49 0 25 -3 29 -10 18 -8
-13 -10 -12 -10 3 0 10 -4 15 -10 12 -9 -6 -14 18 -13 68 0 11 -6 16 -14 13
-16 -7 -17 6 -1 22 9 9 7 12 -9 12 -33 0 -34 13 -3 48 38 44 70 42 120 -8 22
-22 39 -46 38 -53 -2 -8 7 -11 27 -9 52 6 109 6 125 2 10 -3 15 2 15 15 0 18
-7 20 -80 20 -73 0 -80 2 -83 21 -6 40 44 57 182 63 39 1 39 1 21 -19z m-351
-167 c4 -9 3 -20 -1 -23 -13 -12 -97 -20 -112 -11 -26 16 -4 40 41 44 24 2 48
4 54 5 7 1 15 -6 18 -15z m-132 -75 c-7 -7 -12 -8 -12 -2 0 14 12 26 19 19 2
-3 -1 -11 -7 -17z m88 6 c0 -8 -4 -12 -10 -9 -5 3 -10 10 -10 16 0 5 5 9 10 9
6 0 10 -7 10 -16z m-34 -5 c3 -6 1 -16 -5 -22 -9 -9 -14 -8 -21 3 -9 15 -4 30
10 30 5 0 12 -5 16 -11z m-26 -54 c0 -8 -4 -15 -9 -15 -5 0 -11 7 -15 15 -3 9
0 15 9 15 8 0 15 -7 15 -15z m50 5 c0 -5 -7 -10 -16 -10 -8 0 -12 5 -9 10 3 6
10 10 16 10 5 0 9 -4 9 -10z m430 -65 l0 -35 -265 0 -265 0 0 30 0 30 168 2
c92 2 211 4 265 6 l97 2 0 -35z"/>
<path d="M2637 714 c-3 -4 -38 -6 -76 -5 -39 0 -71 -3 -71 -8 0 -12 40 -19
113 -21 44 0 57 3 57 14 0 17 -14 29 -23 20z"/>
<path d="M2700 705 c0 -17 -2 -17 -10 -5 -8 13 -10 13 -10 -2 0 -15 27 -17
133 -9 4 1 7 9 7 19 -1 16 -1 16 -14 -1 -12 -15 -14 -16 -20 -2 -3 8 -10 15
-16 15 -6 0 -9 -4 -5 -9 7 -13 -48 -9 -57 4 -4 6 -8 1 -8 -10z"/>
<path d="M2330 692 c0 -15 2 -15 10 -2 5 8 10 10 10 5 0 -6 11 -12 25 -13 16
-1 25 3 25 12 0 9 -12 14 -35 14 -26 0 -35 -4 -35 -16z"/>
<path d="M2420 698 c0 -13 7 -17 24 -16 16 2 22 7 18 16 -4 11 -6 11 -13 0 -7
-11 -11 -10 -19 2 -8 13 -10 13 -10 -2z"/>
</g>
</svg>
